<svg xmlns="http://www.w3.org/2000/svg" viewBox="0 0 16 16"><defs><style>.cls-1,.cls-2{fill:#fff;}.cls-2{stroke:#000;stroke-linejoin:round;}</style></defs><title>die</title><g id="Layer_2" data-name="Layer 2"><g id="Layer_1-2" data-name="Layer 1"><rect class="cls-1" width="16" height="16"/><path class="cls-2" d="M6.05,6.88,5.4,6.5l-.65-.38L2.8,5v6l2,1.12.65.38.65.38L8,14V8Z"/><path d="M3.45,6.12l1.3.75v1.5l-1.3-.75Z"/><path d="M7.35,12.88l-1.3-.75v-1.5l1.3.75Z"/><path class="cls-2" d="M11.25,3.88,10.6,3.5,10,3.13,8,2,6.05,3.13,5.4,3.5l-.65.37L2.8,5l2,1.13.65.37.65.38L8,8,10,6.87l.65-.37.65-.37c.93-.55,1-.59,1.95-1.13Z"/><path d="M7.35,4.63,6.7,5l.65.37L8,5.75l.65-.38L9.3,5l-.65-.38L8,4.25Z"/><path class="cls-2" d="M11.25,6.13l-.65.37L10,6.88,8,8v6L10,12.88l.65-.38.65-.37L13.2,11V5Z"/><path d="M8.65,8.37V9.88L10,9.12V7.62Z"/><path d="M8.65,12.88l1.3-.75v-1.5l-1.3.75Z"/><path d="M12.55,10.63V9.13l-1.3.75v1.5Z"/><path d="M12.55,6.12l-1.3.75v1.5l1.3-.75Z"/></g></g></svg>